# xmcd
#
# Track frame offsets: 
#        150
#        19088
#        33412
#        51120
#        72603
#        91418
#        107942
#        123899
#        143746
#        165754
#        181316
#        198179
#        218864
#        235318
#        252370
#        266233
#
# Disc length: 3749 seconds
#
# Revision: 0
# Processed by: cddbd v1.5.2PL0 Copyright (c) Steve Scherf et al.
# Submitted via: ExactAudioCopy v1.0b3
#
DISCID=e30ea310
DTITLE=Varios Artistas - Vuelve a Enamorarte Vol. 4
DYEAR=2011
DGENRE=Ballad
TTITLE0=Paloma San Basilio - Beso a Beso...Dulcemente
TTITLE1=Alberto Cortez - En Un Rincón Del Alma
TTITLE2=Raphael - Ave María
TTITLE3=Los Nocheros - Entre La Tierra y El Cielo
TTITLE4=Luciano Pereyra - Perdoname
TTITLE5=Daniela Romo - Amada Más Que Nunca
TTITLE6=Massiel - Brindaremos Por El
TTITLE7=Jorge Rojas - Mia
TTITLE8=Pablo Herrera - Hoy Tengo Ganas De Ti
TTITLE9=Azúcar Moreno - Clavame
TTITLE10=Paulina Rubio - Mio
TTITLE11=Aleks Syntek and Ana Torroja - Duele El Amor
TTITLE12=Obie Bermudez - Antes
TTITLE13=Diego - Más
TTITLE14=Salvatore Adamo - Un Mechón De Tu Cabello
TTITLE15=José Luis Perales - Por Ti
EXTD=
EXTT0=
EXTT1=
EXTT2=
EXTT3=
EXTT4=
EXTT5=
EXTT6=
EXTT7=
EXTT8=
EXTT9=
EXTT10=
EXTT11=
EXTT12=
EXTT13=
EXTT14=
EXTT15=
PLAYORDER=
